<?xml version="1.0" encoding="UTF-8" standalone="no"?>
<svg
   xmlns:osb="http://www.openswatchbook.org/uri/2009/osb"
   xmlns:dc="http://purl.org/dc/elements/1.1/"
   xmlns:cc="http://creativecommons.org/ns#"
   xmlns:rdf="http://www.w3.org/1999/02/22-rdf-syntax-ns#"
   xmlns:svg="http://www.w3.org/2000/svg"
   xmlns="http://www.w3.org/2000/svg"
   xmlns:sodipodi="http://sodipodi.sourceforge.net/DTD/sodipodi-0.dtd"
   xmlns:inkscape="http://www.inkscape.org/namespaces/inkscape"
   version="1.1"
   id="sevice-layer"
   x="0px"
   y="0px"
   width="100px"
   height="100px"
   viewBox="0 0 100 100"
   style="enable-background:new 0 0 100 100;"
   xml:space="preserve"
   inkscape:version="0.48.2 r9819"
   sodipodi:docname="workflower.svg"
   inkscape:export-filename="/Users/hugs/Projects/workflower/workflower.png"
   inkscape:export-xdpi="270"
   inkscape:export-ydpi="270"><metadata
   id="metadata10"><rdf:RDF><cc:Work
       rdf:about=""><dc:format>image/svg+xml</dc:format><dc:type
         rdf:resource="http://purl.org/dc/dcmitype/StillImage" /><dc:title></dc:title></cc:Work></rdf:RDF></metadata><defs
   id="defs8"><linearGradient
     id="linearGradient5209"><stop
       style="stop-color:#000000;stop-opacity:1;"
       offset="0"
       id="stop5211" /><stop
       style="stop-color:#000000;stop-opacity:0;"
       offset="1"
       id="stop5213" /></linearGradient><linearGradient
     id="linearGradient5199"
     osb:paint="solid"><stop
       style="stop-color:#000000;stop-opacity:1;"
       offset="0"
       id="stop5201" /></linearGradient></defs><sodipodi:namedview
   pagecolor="#ffffff"
   bordercolor="#666666"
   borderopacity="1"
   objecttolerance="10"
   gridtolerance="10"
   guidetolerance="10"
   inkscape:pageopacity="0"
   inkscape:pageshadow="2"
   inkscape:window-width="1362"
   inkscape:window-height="724"
   id="namedview6"
   showgrid="false"
   inkscape:zoom="2.36"
   inkscape:cx="-48.118622"
   inkscape:cy="50"
   inkscape:window-x="102"
   inkscape:window-y="94"
   inkscape:window-maximized="0"
   inkscape:current-layer="sevice-layer" />
<rect
   id="frame_54_"
   style="fill:none;"
   width="100"
   height="100" />
<path
   style="fill:#53535a;fill-opacity:1;stroke:#ffffff;stroke-opacity:1;stroke-width:0.12500000000000000;stroke-miterlimit:4;stroke-dasharray:none"
   d="m 7.2777969,28.519116 c 0,0 14.9374551,23.99917 29.7936851,24.519223 -14.85623,-0.520053 -22.844527,29.559216 -22.844527,29.559216 0,0 28.928948,-5.895934 30.884216,-20.767546 -1.955268,14.871612 22.078934,30.743123 22.078934,30.743123 0,0 2.92032,-25.785921 -9.181233,-34.132605 12.101553,8.346684 35.072433,-10.939367 35.072433,-10.939367 0,0 -21.88629,-12.281271 -34.094142,-1.938723 12.207852,-10.342548 5.468349,-39.6364057 5.468349,-39.6364057 0,0 -23.884305,20.7063647 -19.412521,35.2666907 C 40.571207,26.632396 7.2777998,28.519115 7.2777969,28.519116 z M 53.045831,47.68425 c 1.959911,2.313389 1.672185,5.791789 -0.6412,7.751701 -2.31415,1.960561 -5.791788,1.672185 -7.751701,-0.641198 -1.959912,-2.313389 -1.672949,-5.791143 0.641199,-7.751702 2.313388,-1.959913 5.79179,-1.672185 7.751702,0.641199 z"
   id="path4"
   inkscape:connector-curvature="0"
   sodipodi:nodetypes="cccccccccccsssss"
   inkscape:export-xdpi="314.67001"
   inkscape:export-ydpi="314.67001" />
</svg>